<svg width="85" height="36" viewBox="0 0 85 36" fill="none" xmlns="http://www.w3.org/2000/svg">
<path d="M0.563656 -2.14577e-06H9.38366V26.352H11.3997V27H0.707656V26.352H2.68766V0.647998H0.563656V-2.14577e-06ZM32.9825 27H24.7745L24.3785 24.372C23.9945 25.332 23.4185 26.076 22.6505 26.604C21.9065 27.108 20.7905 27.36 19.3025 27.36C15.5825 27.36 13.7225 25.356 13.7225 21.348V10.512H11.7065V9.864H20.4185V22.212C20.4185 23.652 20.5145 24.6 20.7065 25.056C20.9225 25.512 21.3305 25.74 21.9305 25.74C22.5545 25.74 23.1065 25.368 23.5865 24.624C24.0665 23.88 24.3065 22.848 24.3065 21.528V10.512H22.6505V9.864H31.0025V26.352H32.9825V27ZM23.5145 6.12C23.0825 5.592 22.8665 4.956 22.8665 4.212C22.8665 3.468 23.0945 2.844 23.5505 2.34C24.0305 1.836 24.6785 1.584 25.4945 1.584C26.3345 1.584 26.9945 1.812 27.4745 2.268C27.9785 2.7 28.2305 3.336 28.2305 4.176C28.2305 5.016 27.9905 5.688 27.5105 6.192C27.0545 6.672 26.3825 6.912 25.4945 6.912C24.6065 6.912 23.9465 6.648 23.5145 6.12ZM16.5665 6.12C16.1345 5.592 15.9185 4.956 15.9185 4.212C15.9185 3.468 16.1465 2.844 16.6025 2.34C17.0825 1.836 17.7305 1.584 18.5465 1.584C19.3865 1.584 20.0465 1.812 20.5265 2.268C21.0305 2.7 21.2825 3.336 21.2825 4.176C21.2825 5.016 21.0425 5.688 20.5625 6.192C20.1065 6.672 19.4345 6.912 18.5465 6.912C17.6585 6.912 16.9985 6.648 16.5665 6.12ZM48.1554 7.992L49.1634 7.38C49.3074 6.636 49.0194 6.264 48.2994 6.264C47.2674 6.264 46.7514 7.056 46.7514 8.64C46.7514 9.264 46.8354 9.984 47.0034 10.8C48.8274 12.024 49.7394 13.596 49.7394 15.516C49.7394 17.412 49.0794 18.888 47.7594 19.944C46.4394 21 44.6514 21.528 42.3954 21.528C41.4594 21.528 40.4874 21.432 39.4794 21.24C38.4234 21.912 37.8954 22.416 37.8954 22.752C37.8954 23.088 38.6634 23.256 40.1994 23.256H43.8714C49.3194 23.256 52.0434 25.212 52.0434 29.124C52.0434 31.236 51.2154 32.904 49.5594 34.128C47.9274 35.376 45.3714 36 41.8914 36C35.9634 36 32.9994 34.716 32.9994 32.148C32.9994 30.756 33.9234 29.796 35.7714 29.268L37.9314 30.24C37.7394 30.936 37.6434 31.596 37.6434 32.22C37.6434 34.284 39.1794 35.316 42.2514 35.316C44.1234 35.316 45.5634 34.968 46.5714 34.272C47.5794 33.576 48.0834 32.712 48.0834 31.68C48.0834 30.648 47.7714 29.952 47.1474 29.592C46.5474 29.256 45.3354 29.088 43.5114 29.088H40.0194C38.0754 29.088 36.6834 28.764 35.8434 28.116C35.0034 27.468 34.5834 26.676 34.5834 25.74C34.5834 24.78 34.8834 23.988 35.4834 23.364C36.0834 22.716 37.1514 21.924 38.6874 20.988C35.9034 20.196 34.5114 18.372 34.5114 15.516C34.5114 13.716 35.1594 12.264 36.4554 11.16C37.7514 10.056 39.6954 9.504 42.2874 9.504C43.8474 9.504 45.1794 9.804 46.2834 10.404C46.1394 9.756 46.0674 9.168 46.0674 8.64C46.0674 7.296 46.4274 6.324 47.1474 5.724C47.8674 5.124 48.6714 4.824 49.5594 4.824C50.4474 4.824 51.1554 5.064 51.6834 5.544C52.2354 6 52.5114 6.636 52.5114 7.452C52.5114 8.268 52.2954 8.88 51.8634 9.288C51.4314 9.672 50.9034 9.864 50.2794 9.864C49.6794 9.864 49.1754 9.708 48.7674 9.396C48.3834 9.06 48.1794 8.592 48.1554 7.992ZM40.5234 14.724V16.668C40.5234 18.276 40.6554 19.368 40.9194 19.944C41.2074 20.52 41.6274 20.808 42.1794 20.808C42.7554 20.808 43.1634 20.532 43.4034 19.98C43.6674 19.404 43.7994 18.24 43.7994 16.488V14.724C43.7994 12.852 43.6794 11.628 43.4394 11.052C43.1994 10.452 42.7914 10.152 42.2154 10.152C41.6634 10.152 41.2434 10.464 40.9554 11.088C40.6674 11.688 40.5234 12.9 40.5234 14.724ZM60.2539 18.54H61.2979V15.768C61.2979 13.488 61.1659 11.964 60.9019 11.196C60.6619 10.404 60.1819 10.008 59.4619 10.008C59.0299 10.008 58.6339 10.128 58.2739 10.368C57.9379 10.584 57.7699 10.896 57.7699 11.304C57.7699 11.688 57.8419 12.084 57.9859 12.492H58.8859C59.0779 12.996 59.1739 13.608 59.1739 14.328C59.1739 15.024 58.8739 15.636 58.2739 16.164C57.6739 16.668 56.9179 16.92 56.0059 16.92C53.9419 16.92 52.9099 15.924 52.9099 13.932C52.9099 10.98 55.4179 9.504 60.4339 9.504C63.2899 9.504 65.2579 9.996 66.3379 10.98C67.4419 11.94 67.9939 13.716 67.9939 16.308V23.616C67.9939 24.864 68.3419 25.488 69.0379 25.488C69.8539 25.488 70.3339 24.252 70.4779 21.78L71.0179 21.816C70.9219 23.928 70.5259 25.38 69.8299 26.172C69.1339 26.964 67.9939 27.36 66.4099 27.36C63.5299 27.36 61.8739 26.472 61.4419 24.696C61.1299 25.608 60.6619 26.28 60.0379 26.712C59.4139 27.144 58.5019 27.36 57.3019 27.36C53.7499 27.36 51.9739 25.908 51.9739 23.004C51.9739 21.3 52.6459 20.136 53.9899 19.512C55.3579 18.864 57.4459 18.54 60.2539 18.54ZM58.8139 22.968C58.8139 24.216 58.8739 25.02 58.9939 25.38C59.1379 25.74 59.3899 25.92 59.7499 25.92C60.1339 25.92 60.4819 25.62 60.7939 25.02C61.1299 24.396 61.2979 23.544 61.2979 22.464V19.116H61.0459C59.5579 19.116 58.8139 20.208 58.8139 22.392V22.968ZM72.6444 21.852V10.512H70.6644V9.864H72.6444V5.22L79.3404 3.564V9.864H84.0204V10.512H79.3404V22.644C79.3404 23.772 79.4484 24.6 79.6644 25.128C79.9044 25.656 80.3844 25.92 81.1044 25.92C81.8244 25.92 82.4484 25.56 82.9764 24.84C83.5284 24.12 83.8884 23.136 84.0564 21.888L84.6684 21.96C84.4764 23.616 83.9484 24.936 83.0844 25.92C82.2204 26.88 80.7924 27.36 78.8004 27.36C76.8084 27.36 75.2844 26.964 74.2284 26.172C73.1724 25.38 72.6444 23.94 72.6444 21.852Z" fill="black"/>
</svg>
